<mxfile host="Electron" modified="2024-04-26T11:01:12.325Z" agent="Mozilla/5.0 (Windows NT 10.0; Win64; x64) AppleWebKit/537.36 (KHTML, like Gecko) draw.io/24.0.4 Chrome/120.0.6099.109 Electron/28.1.0 Safari/537.36" etag="6voeE5aJ7IYBEVUiBql7" version="24.0.4" type="device">
  <diagram name="prima_db" id="9f46799a-70d6-7492-0946-bef42562c5a5">
    <mxGraphModel dx="1095" dy="692" grid="1" gridSize="10" guides="1" tooltips="1" connect="1" arrows="1" fold="1" page="1" pageScale="1" pageWidth="1100" pageHeight="850" background="none" math="0" shadow="0">
      <root>
        <mxCell id="0" />
        <mxCell id="1" parent="0" />
        <mxCell id="HIobyfhxAD7jdavmol56-2" value="requests" style="shape=table;startSize=30;container=1;collapsible=1;childLayout=tableLayout;fixedRows=1;rowLines=0;fontStyle=1;align=center;resizeLast=1;html=1;fontFamily=Courier New;fontSize=14;" vertex="1" parent="1">
          <mxGeometry x="1328" y="92" width="160" height="180" as="geometry" />
        </mxCell>
        <mxCell id="HIobyfhxAD7jdavmol56-3" value="" style="shape=tableRow;horizontal=0;startSize=0;swimlaneHead=0;swimlaneBody=0;fillColor=none;collapsible=0;dropTarget=0;points=[[0,0.5],[1,0.5]];portConstraint=eastwest;top=0;left=0;right=0;bottom=1;fontFamily=Courier New;fontSize=14;" vertex="1" parent="HIobyfhxAD7jdavmol56-2">
          <mxGeometry y="30" width="160" height="30" as="geometry" />
        </mxCell>
        <mxCell id="HIobyfhxAD7jdavmol56-4" value="PK" style="shape=partialRectangle;connectable=0;fillColor=none;top=0;left=0;bottom=0;right=0;fontStyle=1;overflow=hidden;whiteSpace=wrap;html=1;fontFamily=Courier New;fontSize=14;" vertex="1" parent="HIobyfhxAD7jdavmol56-3">
          <mxGeometry width="30" height="30" as="geometry">
            <mxRectangle width="30" height="30" as="alternateBounds" />
          </mxGeometry>
        </mxCell>
        <mxCell id="HIobyfhxAD7jdavmol56-5" value="id" style="shape=partialRectangle;connectable=0;fillColor=none;top=0;left=0;bottom=0;right=0;align=left;spacingLeft=6;fontStyle=5;overflow=hidden;whiteSpace=wrap;html=1;fontFamily=Courier New;fontSize=14;" vertex="1" parent="HIobyfhxAD7jdavmol56-3">
          <mxGeometry x="30" width="130" height="30" as="geometry">
            <mxRectangle width="130" height="30" as="alternateBounds" />
          </mxGeometry>
        </mxCell>
        <mxCell id="HIobyfhxAD7jdavmol56-6" value="" style="shape=tableRow;horizontal=0;startSize=0;swimlaneHead=0;swimlaneBody=0;fillColor=none;collapsible=0;dropTarget=0;points=[[0,0.5],[1,0.5]];portConstraint=eastwest;top=0;left=0;right=0;bottom=0;fontFamily=Courier New;fontSize=14;" vertex="1" parent="HIobyfhxAD7jdavmol56-2">
          <mxGeometry y="60" width="160" height="30" as="geometry" />
        </mxCell>
        <mxCell id="HIobyfhxAD7jdavmol56-7" value="FK" style="shape=partialRectangle;connectable=0;fillColor=none;top=0;left=0;bottom=0;right=0;editable=1;overflow=hidden;whiteSpace=wrap;html=1;fontFamily=Courier New;fontSize=14;" vertex="1" parent="HIobyfhxAD7jdavmol56-6">
          <mxGeometry width="30" height="30" as="geometry">
            <mxRectangle width="30" height="30" as="alternateBounds" />
          </mxGeometry>
        </mxCell>
        <mxCell id="HIobyfhxAD7jdavmol56-8" value="student_id" style="shape=partialRectangle;connectable=0;fillColor=none;top=0;left=0;bottom=0;right=0;align=left;spacingLeft=6;overflow=hidden;whiteSpace=wrap;html=1;fontFamily=Courier New;fontSize=14;" vertex="1" parent="HIobyfhxAD7jdavmol56-6">
          <mxGeometry x="30" width="130" height="30" as="geometry">
            <mxRectangle width="130" height="30" as="alternateBounds" />
          </mxGeometry>
        </mxCell>
        <mxCell id="HIobyfhxAD7jdavmol56-9" value="" style="shape=tableRow;horizontal=0;startSize=0;swimlaneHead=0;swimlaneBody=0;fillColor=none;collapsible=0;dropTarget=0;points=[[0,0.5],[1,0.5]];portConstraint=eastwest;top=0;left=0;right=0;bottom=0;fontFamily=Courier New;fontSize=14;" vertex="1" parent="HIobyfhxAD7jdavmol56-2">
          <mxGeometry y="90" width="160" height="30" as="geometry" />
        </mxCell>
        <mxCell id="HIobyfhxAD7jdavmol56-10" value="FK" style="shape=partialRectangle;connectable=0;fillColor=none;top=0;left=0;bottom=0;right=0;editable=1;overflow=hidden;whiteSpace=wrap;html=1;fontFamily=Courier New;fontSize=14;" vertex="1" parent="HIobyfhxAD7jdavmol56-9">
          <mxGeometry width="30" height="30" as="geometry">
            <mxRectangle width="30" height="30" as="alternateBounds" />
          </mxGeometry>
        </mxCell>
        <mxCell id="HIobyfhxAD7jdavmol56-11" value="type_id" style="shape=partialRectangle;connectable=0;fillColor=none;top=0;left=0;bottom=0;right=0;align=left;spacingLeft=6;overflow=hidden;whiteSpace=wrap;html=1;fontFamily=Courier New;fontSize=14;" vertex="1" parent="HIobyfhxAD7jdavmol56-9">
          <mxGeometry x="30" width="130" height="30" as="geometry">
            <mxRectangle width="130" height="30" as="alternateBounds" />
          </mxGeometry>
        </mxCell>
        <mxCell id="HIobyfhxAD7jdavmol56-12" value="" style="shape=tableRow;horizontal=0;startSize=0;swimlaneHead=0;swimlaneBody=0;fillColor=none;collapsible=0;dropTarget=0;points=[[0,0.5],[1,0.5]];portConstraint=eastwest;top=0;left=0;right=0;bottom=0;fontFamily=Courier New;fontSize=14;" vertex="1" parent="HIobyfhxAD7jdavmol56-2">
          <mxGeometry y="120" width="160" height="30" as="geometry" />
        </mxCell>
        <mxCell id="HIobyfhxAD7jdavmol56-13" value="" style="shape=partialRectangle;connectable=0;fillColor=none;top=0;left=0;bottom=0;right=0;editable=1;overflow=hidden;whiteSpace=wrap;html=1;fontFamily=Courier New;fontSize=14;" vertex="1" parent="HIobyfhxAD7jdavmol56-12">
          <mxGeometry width="30" height="30" as="geometry">
            <mxRectangle width="30" height="30" as="alternateBounds" />
          </mxGeometry>
        </mxCell>
        <mxCell id="HIobyfhxAD7jdavmol56-14" value="date" style="shape=partialRectangle;connectable=0;fillColor=none;top=0;left=0;bottom=0;right=0;align=left;spacingLeft=6;overflow=hidden;whiteSpace=wrap;html=1;fontFamily=Courier New;fontSize=14;" vertex="1" parent="HIobyfhxAD7jdavmol56-12">
          <mxGeometry x="30" width="130" height="30" as="geometry">
            <mxRectangle width="130" height="30" as="alternateBounds" />
          </mxGeometry>
        </mxCell>
        <mxCell id="HIobyfhxAD7jdavmol56-167" value="" style="shape=tableRow;horizontal=0;startSize=0;swimlaneHead=0;swimlaneBody=0;fillColor=none;collapsible=0;dropTarget=0;points=[[0,0.5],[1,0.5]];portConstraint=eastwest;top=0;left=0;right=0;bottom=0;fontFamily=Courier New;fontSize=14;" vertex="1" parent="HIobyfhxAD7jdavmol56-2">
          <mxGeometry y="150" width="160" height="30" as="geometry" />
        </mxCell>
        <mxCell id="HIobyfhxAD7jdavmol56-168" value="" style="shape=partialRectangle;connectable=0;fillColor=none;top=0;left=0;bottom=0;right=0;editable=1;overflow=hidden;whiteSpace=wrap;html=1;fontFamily=Courier New;fontSize=14;" vertex="1" parent="HIobyfhxAD7jdavmol56-167">
          <mxGeometry width="30" height="30" as="geometry">
            <mxRectangle width="30" height="30" as="alternateBounds" />
          </mxGeometry>
        </mxCell>
        <mxCell id="HIobyfhxAD7jdavmol56-169" value="status" style="shape=partialRectangle;connectable=0;fillColor=none;top=0;left=0;bottom=0;right=0;align=left;spacingLeft=6;overflow=hidden;whiteSpace=wrap;html=1;fontFamily=Courier New;fontSize=14;" vertex="1" parent="HIobyfhxAD7jdavmol56-167">
          <mxGeometry x="30" width="130" height="30" as="geometry">
            <mxRectangle width="130" height="30" as="alternateBounds" />
          </mxGeometry>
        </mxCell>
        <mxCell id="HIobyfhxAD7jdavmol56-15" value="Заказ" style="swimlane;childLayout=stackLayout;horizontal=1;startSize=30;horizontalStack=0;rounded=1;fontSize=14;fontStyle=0;strokeWidth=1;resizeParent=0;resizeLast=1;shadow=0;dashed=0;align=center;arcSize=4;whiteSpace=wrap;html=1;fontFamily=Courier New;labelBorderColor=none;textOpacity=50;fillColor=#ffe6cc;strokeColor=#d79b00;" vertex="1" parent="1">
          <mxGeometry x="40" y="90" width="120" height="160" as="geometry">
            <mxRectangle x="370" y="60" width="80" height="50" as="alternateBounds" />
          </mxGeometry>
        </mxCell>
        <mxCell id="HIobyfhxAD7jdavmol56-16" value="&lt;p style=&quot;line-height: 50%;&quot;&gt;ФИО&lt;/p&gt;&lt;p style=&quot;line-height: 50%;&quot;&gt;Группа&lt;/p&gt;&lt;p style=&quot;line-height: 50%;&quot;&gt;Тип справки&lt;/p&gt;&lt;p style=&quot;line-height: 50%;&quot;&gt;Дата заказа&lt;/p&gt;&lt;p style=&quot;line-height: 50%;&quot;&gt;Статус&lt;/p&gt;" style="align=left;strokeColor=#d79b00;fillColor=#ffe6cc;spacingLeft=4;fontSize=14;verticalAlign=top;resizable=0;rotatable=0;part=1;html=1;fontFamily=Courier New;" vertex="1" parent="HIobyfhxAD7jdavmol56-15">
          <mxGeometry y="30" width="120" height="130" as="geometry" />
        </mxCell>
        <mxCell id="HIobyfhxAD7jdavmol56-19" value="Сущности" style="text;html=1;align=center;verticalAlign=middle;whiteSpace=wrap;rounded=0;fontFamily=Courier New;fontSize=16;fontStyle=1" vertex="1" parent="1">
          <mxGeometry x="40" y="40" width="80" height="30" as="geometry" />
        </mxCell>
        <mxCell id="HIobyfhxAD7jdavmol56-22" value="Тип справки" style="swimlane;childLayout=stackLayout;horizontal=1;startSize=30;horizontalStack=0;rounded=1;fontSize=14;fontStyle=0;strokeWidth=1;resizeParent=0;resizeLast=1;shadow=0;dashed=0;align=center;arcSize=4;whiteSpace=wrap;html=1;fontFamily=Courier New;labelBorderColor=none;textOpacity=50;fillColor=#ffe6cc;strokeColor=#d79b00;" vertex="1" parent="1">
          <mxGeometry x="180" y="90" width="120" height="80" as="geometry">
            <mxRectangle x="370" y="60" width="80" height="50" as="alternateBounds" />
          </mxGeometry>
        </mxCell>
        <mxCell id="HIobyfhxAD7jdavmol56-23" value="&lt;p style=&quot;line-height: 50%;&quot;&gt;Наименование&lt;/p&gt;" style="align=left;strokeColor=#d79b00;fillColor=#ffe6cc;spacingLeft=4;fontSize=14;verticalAlign=top;resizable=0;rotatable=0;part=1;html=1;fontFamily=Courier New;" vertex="1" parent="HIobyfhxAD7jdavmol56-22">
          <mxGeometry y="30" width="120" height="50" as="geometry" />
        </mxCell>
        <mxCell id="HIobyfhxAD7jdavmol56-33" value="Группа" style="swimlane;childLayout=stackLayout;horizontal=1;startSize=30;horizontalStack=0;rounded=1;fontSize=14;fontStyle=0;strokeWidth=1;resizeParent=0;resizeLast=1;shadow=0;dashed=0;align=center;arcSize=4;whiteSpace=wrap;html=1;fontFamily=Courier New;labelBorderColor=none;textOpacity=50;" vertex="1" parent="1">
          <mxGeometry x="560" y="90" width="213" height="180" as="geometry">
            <mxRectangle x="370" y="60" width="80" height="50" as="alternateBounds" />
          </mxGeometry>
        </mxCell>
        <mxCell id="HIobyfhxAD7jdavmol56-34" value="&lt;p style=&quot;line-height: 50%;&quot;&gt;Номер&lt;/p&gt;&lt;p style=&quot;line-height: 50%;&quot;&gt;Наименование&lt;/p&gt;&lt;p style=&quot;line-height: 50%;&quot;&gt;Дата начала обучения&lt;/p&gt;&lt;p style=&quot;line-height: 50%;&quot;&gt;Дата окончания обучения&lt;/p&gt;&lt;p style=&quot;line-height: 50%;&quot;&gt;Специальность&lt;/p&gt;&lt;p style=&quot;line-height: 50%;&quot;&gt;Курс&lt;/p&gt;&lt;p style=&quot;line-height: 50%;&quot;&gt;&lt;br&gt;&lt;/p&gt;" style="align=left;strokeColor=none;fillColor=none;spacingLeft=4;fontSize=14;verticalAlign=top;resizable=0;rotatable=0;part=1;html=1;fontFamily=Courier New;" vertex="1" parent="HIobyfhxAD7jdavmol56-33">
          <mxGeometry y="30" width="213" height="150" as="geometry" />
        </mxCell>
        <mxCell id="HIobyfhxAD7jdavmol56-35" value="Специальность" style="swimlane;childLayout=stackLayout;horizontal=1;startSize=30;horizontalStack=0;rounded=1;fontSize=14;fontStyle=0;strokeWidth=1;resizeParent=0;resizeLast=1;shadow=0;dashed=0;align=center;arcSize=4;whiteSpace=wrap;html=1;fontFamily=Courier New;labelBorderColor=none;textOpacity=50;" vertex="1" parent="1">
          <mxGeometry x="40" y="325" width="213" height="80" as="geometry">
            <mxRectangle x="370" y="60" width="80" height="50" as="alternateBounds" />
          </mxGeometry>
        </mxCell>
        <mxCell id="HIobyfhxAD7jdavmol56-37" value="Код&lt;div&gt;Наименование&lt;/div&gt;" style="align=left;strokeColor=none;fillColor=none;spacingLeft=4;fontSize=14;verticalAlign=top;resizable=0;rotatable=0;part=1;html=1;fontFamily=Courier New;" vertex="1" parent="HIobyfhxAD7jdavmol56-35">
          <mxGeometry y="30" width="213" height="50" as="geometry" />
        </mxCell>
        <mxCell id="HIobyfhxAD7jdavmol56-39" value="Студент" style="swimlane;childLayout=stackLayout;horizontal=1;startSize=30;horizontalStack=0;rounded=1;fontSize=14;fontStyle=0;strokeWidth=1;resizeParent=0;resizeLast=1;shadow=0;dashed=0;align=center;arcSize=4;whiteSpace=wrap;html=1;fontFamily=Courier New;labelBorderColor=none;textOpacity=50;" vertex="1" parent="1">
          <mxGeometry x="320" y="90" width="213" height="200" as="geometry">
            <mxRectangle x="370" y="60" width="80" height="50" as="alternateBounds" />
          </mxGeometry>
        </mxCell>
        <mxCell id="HIobyfhxAD7jdavmol56-40" value="Фамилия&lt;div style=&quot;line-height: 140%;&quot;&gt;Имя&lt;/div&gt;&lt;div style=&quot;line-height: 140%;&quot;&gt;Отчество&lt;/div&gt;&lt;div style=&quot;line-height: 140%;&quot;&gt;Дата рожденияя&lt;/div&gt;&lt;div style=&quot;line-height: 140%;&quot;&gt;Группа&lt;/div&gt;&lt;div style=&quot;line-height: 140%;&quot;&gt;Форма обучения&lt;/div&gt;&lt;div style=&quot;line-height: 140%;&quot;&gt;Приказ о зачислении&lt;/div&gt;&lt;div style=&quot;line-height: 140%;&quot;&gt;Почта&lt;/div&gt;" style="align=left;strokeColor=none;fillColor=none;spacingLeft=4;fontSize=14;verticalAlign=top;resizable=0;rotatable=0;part=1;html=1;fontFamily=Courier New;" vertex="1" parent="HIobyfhxAD7jdavmol56-39">
          <mxGeometry y="30" width="213" height="170" as="geometry" />
        </mxCell>
        <mxCell id="HIobyfhxAD7jdavmol56-41" value="Приказ о зачислении" style="swimlane;childLayout=stackLayout;horizontal=1;startSize=30;horizontalStack=0;rounded=1;fontSize=14;fontStyle=0;strokeWidth=1;resizeParent=0;resizeLast=1;shadow=0;dashed=0;align=center;arcSize=4;whiteSpace=wrap;html=1;fontFamily=Courier New;labelBorderColor=none;textOpacity=50;" vertex="1" parent="1">
          <mxGeometry x="280" y="325" width="213" height="80" as="geometry">
            <mxRectangle x="370" y="60" width="80" height="50" as="alternateBounds" />
          </mxGeometry>
        </mxCell>
        <mxCell id="HIobyfhxAD7jdavmol56-42" value="Номер&lt;div&gt;Дата&lt;/div&gt;" style="align=left;strokeColor=none;fillColor=none;spacingLeft=4;fontSize=14;verticalAlign=top;resizable=0;rotatable=0;part=1;html=1;fontFamily=Courier New;" vertex="1" parent="HIobyfhxAD7jdavmol56-41">
          <mxGeometry y="30" width="213" height="50" as="geometry" />
        </mxCell>
        <mxCell id="HIobyfhxAD7jdavmol56-43" value="Таблицы" style="text;html=1;align=center;verticalAlign=middle;whiteSpace=wrap;rounded=0;fontFamily=Courier New;fontSize=16;fontStyle=1;horizontal=1;" vertex="1" parent="1">
          <mxGeometry x="1119" y="40" width="80" height="30" as="geometry" />
        </mxCell>
        <mxCell id="HIobyfhxAD7jdavmol56-50" value="types" style="shape=table;startSize=30;container=1;collapsible=1;childLayout=tableLayout;fixedRows=1;rowLines=0;fontStyle=1;align=center;resizeLast=1;html=1;fontFamily=Courier New;fontSize=14;" vertex="1" parent="1">
          <mxGeometry x="1119" y="92" width="160" height="90" as="geometry" />
        </mxCell>
        <mxCell id="HIobyfhxAD7jdavmol56-51" value="" style="shape=tableRow;horizontal=0;startSize=0;swimlaneHead=0;swimlaneBody=0;fillColor=none;collapsible=0;dropTarget=0;points=[[0,0.5],[1,0.5]];portConstraint=eastwest;top=0;left=0;right=0;bottom=1;fontFamily=Courier New;fontSize=14;" vertex="1" parent="HIobyfhxAD7jdavmol56-50">
          <mxGeometry y="30" width="160" height="30" as="geometry" />
        </mxCell>
        <mxCell id="HIobyfhxAD7jdavmol56-52" value="PK" style="shape=partialRectangle;connectable=0;fillColor=none;top=0;left=0;bottom=0;right=0;fontStyle=1;overflow=hidden;whiteSpace=wrap;html=1;fontFamily=Courier New;fontSize=14;" vertex="1" parent="HIobyfhxAD7jdavmol56-51">
          <mxGeometry width="30" height="30" as="geometry">
            <mxRectangle width="30" height="30" as="alternateBounds" />
          </mxGeometry>
        </mxCell>
        <mxCell id="HIobyfhxAD7jdavmol56-53" value="id" style="shape=partialRectangle;connectable=0;fillColor=none;top=0;left=0;bottom=0;right=0;align=left;spacingLeft=6;fontStyle=5;overflow=hidden;whiteSpace=wrap;html=1;fontFamily=Courier New;fontSize=14;" vertex="1" parent="HIobyfhxAD7jdavmol56-51">
          <mxGeometry x="30" width="130" height="30" as="geometry">
            <mxRectangle width="130" height="30" as="alternateBounds" />
          </mxGeometry>
        </mxCell>
        <mxCell id="HIobyfhxAD7jdavmol56-54" value="" style="shape=tableRow;horizontal=0;startSize=0;swimlaneHead=0;swimlaneBody=0;fillColor=none;collapsible=0;dropTarget=0;points=[[0,0.5],[1,0.5]];portConstraint=eastwest;top=0;left=0;right=0;bottom=0;fontFamily=Courier New;fontSize=14;" vertex="1" parent="HIobyfhxAD7jdavmol56-50">
          <mxGeometry y="60" width="160" height="30" as="geometry" />
        </mxCell>
        <mxCell id="HIobyfhxAD7jdavmol56-55" value="" style="shape=partialRectangle;connectable=0;fillColor=none;top=0;left=0;bottom=0;right=0;editable=1;overflow=hidden;whiteSpace=wrap;html=1;fontFamily=Courier New;fontSize=14;" vertex="1" parent="HIobyfhxAD7jdavmol56-54">
          <mxGeometry width="30" height="30" as="geometry">
            <mxRectangle width="30" height="30" as="alternateBounds" />
          </mxGeometry>
        </mxCell>
        <mxCell id="HIobyfhxAD7jdavmol56-56" value="title" style="shape=partialRectangle;connectable=0;fillColor=none;top=0;left=0;bottom=0;right=0;align=left;spacingLeft=6;overflow=hidden;whiteSpace=wrap;html=1;fontFamily=Courier New;fontSize=14;" vertex="1" parent="HIobyfhxAD7jdavmol56-54">
          <mxGeometry x="30" width="130" height="30" as="geometry">
            <mxRectangle width="130" height="30" as="alternateBounds" />
          </mxGeometry>
        </mxCell>
        <mxCell id="HIobyfhxAD7jdavmol56-73" value="groups" style="shape=table;startSize=30;container=1;collapsible=1;childLayout=tableLayout;fixedRows=1;rowLines=0;fontStyle=1;align=center;resizeLast=1;html=1;fontFamily=Courier New;fontSize=14;strokeColor=#878787;fontColor=#878787;" vertex="1" parent="1">
          <mxGeometry x="1779" y="92" width="160" height="240" as="geometry" />
        </mxCell>
        <mxCell id="HIobyfhxAD7jdavmol56-74" value="" style="shape=tableRow;horizontal=0;startSize=0;swimlaneHead=0;swimlaneBody=0;fillColor=none;collapsible=0;dropTarget=0;points=[[0,0.5],[1,0.5]];portConstraint=eastwest;top=0;left=0;right=0;bottom=1;fontFamily=Courier New;fontSize=14;strokeColor=#878787;fontColor=#878787;" vertex="1" parent="HIobyfhxAD7jdavmol56-73">
          <mxGeometry y="30" width="160" height="30" as="geometry" />
        </mxCell>
        <mxCell id="HIobyfhxAD7jdavmol56-75" value="PK" style="shape=partialRectangle;connectable=0;fillColor=none;top=0;left=0;bottom=0;right=0;fontStyle=1;overflow=hidden;whiteSpace=wrap;html=1;fontFamily=Courier New;fontSize=14;strokeColor=#878787;fontColor=#878787;" vertex="1" parent="HIobyfhxAD7jdavmol56-74">
          <mxGeometry width="30" height="30" as="geometry">
            <mxRectangle width="30" height="30" as="alternateBounds" />
          </mxGeometry>
        </mxCell>
        <mxCell id="HIobyfhxAD7jdavmol56-76" value="id" style="shape=partialRectangle;connectable=0;fillColor=none;top=0;left=0;bottom=0;right=0;align=left;spacingLeft=6;fontStyle=5;overflow=hidden;whiteSpace=wrap;html=1;fontFamily=Courier New;fontSize=14;strokeColor=#878787;fontColor=#878787;" vertex="1" parent="HIobyfhxAD7jdavmol56-74">
          <mxGeometry x="30" width="130" height="30" as="geometry">
            <mxRectangle width="130" height="30" as="alternateBounds" />
          </mxGeometry>
        </mxCell>
        <mxCell id="HIobyfhxAD7jdavmol56-77" value="" style="shape=tableRow;horizontal=0;startSize=0;swimlaneHead=0;swimlaneBody=0;fillColor=none;collapsible=0;dropTarget=0;points=[[0,0.5],[1,0.5]];portConstraint=eastwest;top=0;left=0;right=0;bottom=0;fontFamily=Courier New;fontSize=14;strokeColor=#878787;fontColor=#878787;" vertex="1" parent="HIobyfhxAD7jdavmol56-73">
          <mxGeometry y="60" width="160" height="30" as="geometry" />
        </mxCell>
        <mxCell id="HIobyfhxAD7jdavmol56-78" value="" style="shape=partialRectangle;connectable=0;fillColor=none;top=0;left=0;bottom=0;right=0;editable=1;overflow=hidden;whiteSpace=wrap;html=1;fontFamily=Courier New;fontSize=14;strokeColor=#878787;fontColor=#878787;" vertex="1" parent="HIobyfhxAD7jdavmol56-77">
          <mxGeometry width="30" height="30" as="geometry">
            <mxRectangle width="30" height="30" as="alternateBounds" />
          </mxGeometry>
        </mxCell>
        <mxCell id="HIobyfhxAD7jdavmol56-79" value="number" style="shape=partialRectangle;connectable=0;fillColor=none;top=0;left=0;bottom=0;right=0;align=left;spacingLeft=6;overflow=hidden;whiteSpace=wrap;html=1;fontFamily=Courier New;fontSize=14;strokeColor=#878787;fontColor=#878787;" vertex="1" parent="HIobyfhxAD7jdavmol56-77">
          <mxGeometry x="30" width="130" height="30" as="geometry">
            <mxRectangle width="130" height="30" as="alternateBounds" />
          </mxGeometry>
        </mxCell>
        <mxCell id="HIobyfhxAD7jdavmol56-80" value="" style="shape=tableRow;horizontal=0;startSize=0;swimlaneHead=0;swimlaneBody=0;fillColor=none;collapsible=0;dropTarget=0;points=[[0,0.5],[1,0.5]];portConstraint=eastwest;top=0;left=0;right=0;bottom=0;fontFamily=Courier New;fontSize=14;strokeColor=#878787;fontColor=#878787;" vertex="1" parent="HIobyfhxAD7jdavmol56-73">
          <mxGeometry y="90" width="160" height="30" as="geometry" />
        </mxCell>
        <mxCell id="HIobyfhxAD7jdavmol56-81" value="" style="shape=partialRectangle;connectable=0;fillColor=none;top=0;left=0;bottom=0;right=0;editable=1;overflow=hidden;whiteSpace=wrap;html=1;fontFamily=Courier New;fontSize=14;strokeColor=#878787;fontColor=#878787;" vertex="1" parent="HIobyfhxAD7jdavmol56-80">
          <mxGeometry width="30" height="30" as="geometry">
            <mxRectangle width="30" height="30" as="alternateBounds" />
          </mxGeometry>
        </mxCell>
        <mxCell id="HIobyfhxAD7jdavmol56-82" value="title" style="shape=partialRectangle;connectable=0;fillColor=none;top=0;left=0;bottom=0;right=0;align=left;spacingLeft=6;overflow=hidden;whiteSpace=wrap;html=1;fontFamily=Courier New;fontSize=14;strokeColor=#878787;fontColor=#878787;" vertex="1" parent="HIobyfhxAD7jdavmol56-80">
          <mxGeometry x="30" width="130" height="30" as="geometry">
            <mxRectangle width="130" height="30" as="alternateBounds" />
          </mxGeometry>
        </mxCell>
        <mxCell id="HIobyfhxAD7jdavmol56-83" value="" style="shape=tableRow;horizontal=0;startSize=0;swimlaneHead=0;swimlaneBody=0;fillColor=none;collapsible=0;dropTarget=0;points=[[0,0.5],[1,0.5]];portConstraint=eastwest;top=0;left=0;right=0;bottom=0;fontFamily=Courier New;fontSize=14;strokeColor=#878787;fontColor=#878787;" vertex="1" parent="HIobyfhxAD7jdavmol56-73">
          <mxGeometry y="120" width="160" height="30" as="geometry" />
        </mxCell>
        <mxCell id="HIobyfhxAD7jdavmol56-84" value="FK" style="shape=partialRectangle;connectable=0;fillColor=none;top=0;left=0;bottom=0;right=0;editable=1;overflow=hidden;whiteSpace=wrap;html=1;fontFamily=Courier New;fontSize=14;strokeColor=#878787;fontColor=#878787;" vertex="1" parent="HIobyfhxAD7jdavmol56-83">
          <mxGeometry width="30" height="30" as="geometry">
            <mxRectangle width="30" height="30" as="alternateBounds" />
          </mxGeometry>
        </mxCell>
        <mxCell id="HIobyfhxAD7jdavmol56-85" value="spec_id" style="shape=partialRectangle;connectable=0;fillColor=none;top=0;left=0;bottom=0;right=0;align=left;spacingLeft=6;overflow=hidden;whiteSpace=wrap;html=1;fontFamily=Courier New;fontSize=14;strokeColor=#878787;fontColor=#878787;" vertex="1" parent="HIobyfhxAD7jdavmol56-83">
          <mxGeometry x="30" width="130" height="30" as="geometry">
            <mxRectangle width="130" height="30" as="alternateBounds" />
          </mxGeometry>
        </mxCell>
        <mxCell id="HIobyfhxAD7jdavmol56-89" value="" style="shape=tableRow;horizontal=0;startSize=0;swimlaneHead=0;swimlaneBody=0;fillColor=none;collapsible=0;dropTarget=0;points=[[0,0.5],[1,0.5]];portConstraint=eastwest;top=0;left=0;right=0;bottom=0;fontFamily=Courier New;fontSize=14;strokeColor=#878787;fontColor=#878787;" vertex="1" parent="HIobyfhxAD7jdavmol56-73">
          <mxGeometry y="150" width="160" height="30" as="geometry" />
        </mxCell>
        <mxCell id="HIobyfhxAD7jdavmol56-90" value="" style="shape=partialRectangle;connectable=0;fillColor=none;top=0;left=0;bottom=0;right=0;editable=1;overflow=hidden;whiteSpace=wrap;html=1;fontFamily=Courier New;fontSize=14;strokeColor=#878787;fontColor=#878787;" vertex="1" parent="HIobyfhxAD7jdavmol56-89">
          <mxGeometry width="30" height="30" as="geometry">
            <mxRectangle width="30" height="30" as="alternateBounds" />
          </mxGeometry>
        </mxCell>
        <mxCell id="HIobyfhxAD7jdavmol56-91" value="date_start" style="shape=partialRectangle;connectable=0;fillColor=none;top=0;left=0;bottom=0;right=0;align=left;spacingLeft=6;overflow=hidden;whiteSpace=wrap;html=1;fontFamily=Courier New;fontSize=14;strokeColor=#878787;fontColor=#878787;" vertex="1" parent="HIobyfhxAD7jdavmol56-89">
          <mxGeometry x="30" width="130" height="30" as="geometry">
            <mxRectangle width="130" height="30" as="alternateBounds" />
          </mxGeometry>
        </mxCell>
        <mxCell id="HIobyfhxAD7jdavmol56-92" value="" style="shape=tableRow;horizontal=0;startSize=0;swimlaneHead=0;swimlaneBody=0;fillColor=none;collapsible=0;dropTarget=0;points=[[0,0.5],[1,0.5]];portConstraint=eastwest;top=0;left=0;right=0;bottom=0;fontFamily=Courier New;fontSize=14;strokeColor=#878787;fontColor=#878787;" vertex="1" parent="HIobyfhxAD7jdavmol56-73">
          <mxGeometry y="180" width="160" height="30" as="geometry" />
        </mxCell>
        <mxCell id="HIobyfhxAD7jdavmol56-93" value="" style="shape=partialRectangle;connectable=0;fillColor=none;top=0;left=0;bottom=0;right=0;editable=1;overflow=hidden;whiteSpace=wrap;html=1;fontFamily=Courier New;fontSize=14;strokeColor=#878787;fontColor=#878787;" vertex="1" parent="HIobyfhxAD7jdavmol56-92">
          <mxGeometry width="30" height="30" as="geometry">
            <mxRectangle width="30" height="30" as="alternateBounds" />
          </mxGeometry>
        </mxCell>
        <mxCell id="HIobyfhxAD7jdavmol56-94" value="date_finish" style="shape=partialRectangle;connectable=0;fillColor=none;top=0;left=0;bottom=0;right=0;align=left;spacingLeft=6;overflow=hidden;whiteSpace=wrap;html=1;fontFamily=Courier New;fontSize=14;strokeColor=#878787;fontColor=#878787;" vertex="1" parent="HIobyfhxAD7jdavmol56-92">
          <mxGeometry x="30" width="130" height="30" as="geometry">
            <mxRectangle width="130" height="30" as="alternateBounds" />
          </mxGeometry>
        </mxCell>
        <mxCell id="HIobyfhxAD7jdavmol56-86" value="" style="shape=tableRow;horizontal=0;startSize=0;swimlaneHead=0;swimlaneBody=0;fillColor=none;collapsible=0;dropTarget=0;points=[[0,0.5],[1,0.5]];portConstraint=eastwest;top=0;left=0;right=0;bottom=0;fontFamily=Courier New;fontSize=14;strokeColor=#878787;fontColor=#878787;" vertex="1" parent="HIobyfhxAD7jdavmol56-73">
          <mxGeometry y="210" width="160" height="30" as="geometry" />
        </mxCell>
        <mxCell id="HIobyfhxAD7jdavmol56-87" value="" style="shape=partialRectangle;connectable=0;fillColor=none;top=0;left=0;bottom=0;right=0;editable=1;overflow=hidden;whiteSpace=wrap;html=1;fontFamily=Courier New;fontSize=14;strokeColor=#878787;fontColor=#878787;" vertex="1" parent="HIobyfhxAD7jdavmol56-86">
          <mxGeometry width="30" height="30" as="geometry">
            <mxRectangle width="30" height="30" as="alternateBounds" />
          </mxGeometry>
        </mxCell>
        <mxCell id="HIobyfhxAD7jdavmol56-88" value="course" style="shape=partialRectangle;connectable=0;fillColor=none;top=0;left=0;bottom=0;right=0;align=left;spacingLeft=6;overflow=hidden;whiteSpace=wrap;html=1;fontFamily=Courier New;fontSize=14;strokeColor=#878787;fontColor=#878787;" vertex="1" parent="HIobyfhxAD7jdavmol56-86">
          <mxGeometry x="30" width="130" height="30" as="geometry">
            <mxRectangle width="130" height="30" as="alternateBounds" />
          </mxGeometry>
        </mxCell>
        <mxCell id="HIobyfhxAD7jdavmol56-95" value="specialities" style="shape=table;startSize=30;container=1;collapsible=1;childLayout=tableLayout;fixedRows=1;rowLines=0;fontStyle=1;align=center;resizeLast=1;html=1;fontFamily=Courier New;fontSize=14;strokeColor=#878787;fontColor=#878787;" vertex="1" parent="1">
          <mxGeometry x="1997" y="92" width="160" height="120" as="geometry" />
        </mxCell>
        <mxCell id="HIobyfhxAD7jdavmol56-96" value="" style="shape=tableRow;horizontal=0;startSize=0;swimlaneHead=0;swimlaneBody=0;fillColor=none;collapsible=0;dropTarget=0;points=[[0,0.5],[1,0.5]];portConstraint=eastwest;top=0;left=0;right=0;bottom=1;fontFamily=Courier New;fontSize=14;strokeColor=#878787;fontColor=#878787;" vertex="1" parent="HIobyfhxAD7jdavmol56-95">
          <mxGeometry y="30" width="160" height="30" as="geometry" />
        </mxCell>
        <mxCell id="HIobyfhxAD7jdavmol56-97" value="PK" style="shape=partialRectangle;connectable=0;fillColor=none;top=0;left=0;bottom=0;right=0;fontStyle=1;overflow=hidden;whiteSpace=wrap;html=1;fontFamily=Courier New;fontSize=14;strokeColor=#878787;fontColor=#878787;" vertex="1" parent="HIobyfhxAD7jdavmol56-96">
          <mxGeometry width="30" height="30" as="geometry">
            <mxRectangle width="30" height="30" as="alternateBounds" />
          </mxGeometry>
        </mxCell>
        <mxCell id="HIobyfhxAD7jdavmol56-98" value="id" style="shape=partialRectangle;connectable=0;fillColor=none;top=0;left=0;bottom=0;right=0;align=left;spacingLeft=6;fontStyle=5;overflow=hidden;whiteSpace=wrap;html=1;fontFamily=Courier New;fontSize=14;strokeColor=#878787;fontColor=#878787;" vertex="1" parent="HIobyfhxAD7jdavmol56-96">
          <mxGeometry x="30" width="130" height="30" as="geometry">
            <mxRectangle width="130" height="30" as="alternateBounds" />
          </mxGeometry>
        </mxCell>
        <mxCell id="HIobyfhxAD7jdavmol56-99" value="" style="shape=tableRow;horizontal=0;startSize=0;swimlaneHead=0;swimlaneBody=0;fillColor=none;collapsible=0;dropTarget=0;points=[[0,0.5],[1,0.5]];portConstraint=eastwest;top=0;left=0;right=0;bottom=0;fontFamily=Courier New;fontSize=14;strokeColor=#878787;fontColor=#878787;" vertex="1" parent="HIobyfhxAD7jdavmol56-95">
          <mxGeometry y="60" width="160" height="30" as="geometry" />
        </mxCell>
        <mxCell id="HIobyfhxAD7jdavmol56-100" value="" style="shape=partialRectangle;connectable=0;fillColor=none;top=0;left=0;bottom=0;right=0;editable=1;overflow=hidden;whiteSpace=wrap;html=1;fontFamily=Courier New;fontSize=14;strokeColor=#878787;fontColor=#878787;" vertex="1" parent="HIobyfhxAD7jdavmol56-99">
          <mxGeometry width="30" height="30" as="geometry">
            <mxRectangle width="30" height="30" as="alternateBounds" />
          </mxGeometry>
        </mxCell>
        <mxCell id="HIobyfhxAD7jdavmol56-101" value="code" style="shape=partialRectangle;connectable=0;fillColor=none;top=0;left=0;bottom=0;right=0;align=left;spacingLeft=6;overflow=hidden;whiteSpace=wrap;html=1;fontFamily=Courier New;fontSize=14;strokeColor=#878787;fontColor=#878787;" vertex="1" parent="HIobyfhxAD7jdavmol56-99">
          <mxGeometry x="30" width="130" height="30" as="geometry">
            <mxRectangle width="130" height="30" as="alternateBounds" />
          </mxGeometry>
        </mxCell>
        <mxCell id="HIobyfhxAD7jdavmol56-102" value="" style="shape=tableRow;horizontal=0;startSize=0;swimlaneHead=0;swimlaneBody=0;fillColor=none;collapsible=0;dropTarget=0;points=[[0,0.5],[1,0.5]];portConstraint=eastwest;top=0;left=0;right=0;bottom=0;fontFamily=Courier New;fontSize=14;strokeColor=#878787;fontColor=#878787;" vertex="1" parent="HIobyfhxAD7jdavmol56-95">
          <mxGeometry y="90" width="160" height="30" as="geometry" />
        </mxCell>
        <mxCell id="HIobyfhxAD7jdavmol56-103" value="" style="shape=partialRectangle;connectable=0;fillColor=none;top=0;left=0;bottom=0;right=0;editable=1;overflow=hidden;whiteSpace=wrap;html=1;fontFamily=Courier New;fontSize=14;strokeColor=#878787;fontColor=#878787;" vertex="1" parent="HIobyfhxAD7jdavmol56-102">
          <mxGeometry width="30" height="30" as="geometry">
            <mxRectangle width="30" height="30" as="alternateBounds" />
          </mxGeometry>
        </mxCell>
        <mxCell id="HIobyfhxAD7jdavmol56-104" value="title" style="shape=partialRectangle;connectable=0;fillColor=none;top=0;left=0;bottom=0;right=0;align=left;spacingLeft=6;overflow=hidden;whiteSpace=wrap;html=1;fontFamily=Courier New;fontSize=14;strokeColor=#878787;fontColor=#878787;" vertex="1" parent="HIobyfhxAD7jdavmol56-102">
          <mxGeometry x="30" width="130" height="30" as="geometry">
            <mxRectangle width="130" height="30" as="alternateBounds" />
          </mxGeometry>
        </mxCell>
        <mxCell id="HIobyfhxAD7jdavmol56-105" value="students" style="shape=table;startSize=30;container=1;collapsible=1;childLayout=tableLayout;fixedRows=1;rowLines=0;fontStyle=1;align=center;resizeLast=1;html=1;fontFamily=Courier New;fontSize=14;strokeColor=#878787;fontColor=#878787;" vertex="1" parent="1">
          <mxGeometry x="1539" y="92" width="160" height="300" as="geometry" />
        </mxCell>
        <mxCell id="HIobyfhxAD7jdavmol56-106" value="" style="shape=tableRow;horizontal=0;startSize=0;swimlaneHead=0;swimlaneBody=0;fillColor=none;collapsible=0;dropTarget=0;points=[[0,0.5],[1,0.5]];portConstraint=eastwest;top=0;left=0;right=0;bottom=1;fontFamily=Courier New;fontSize=14;strokeColor=#878787;fontColor=#878787;" vertex="1" parent="HIobyfhxAD7jdavmol56-105">
          <mxGeometry y="30" width="160" height="30" as="geometry" />
        </mxCell>
        <mxCell id="HIobyfhxAD7jdavmol56-107" value="PK" style="shape=partialRectangle;connectable=0;fillColor=none;top=0;left=0;bottom=0;right=0;fontStyle=1;overflow=hidden;whiteSpace=wrap;html=1;fontFamily=Courier New;fontSize=14;strokeColor=#878787;fontColor=#878787;" vertex="1" parent="HIobyfhxAD7jdavmol56-106">
          <mxGeometry width="30" height="30" as="geometry">
            <mxRectangle width="30" height="30" as="alternateBounds" />
          </mxGeometry>
        </mxCell>
        <mxCell id="HIobyfhxAD7jdavmol56-108" value="id" style="shape=partialRectangle;connectable=0;fillColor=none;top=0;left=0;bottom=0;right=0;align=left;spacingLeft=6;fontStyle=5;overflow=hidden;whiteSpace=wrap;html=1;fontFamily=Courier New;fontSize=14;strokeColor=#878787;fontColor=#878787;" vertex="1" parent="HIobyfhxAD7jdavmol56-106">
          <mxGeometry x="30" width="130" height="30" as="geometry">
            <mxRectangle width="130" height="30" as="alternateBounds" />
          </mxGeometry>
        </mxCell>
        <mxCell id="HIobyfhxAD7jdavmol56-109" value="" style="shape=tableRow;horizontal=0;startSize=0;swimlaneHead=0;swimlaneBody=0;fillColor=none;collapsible=0;dropTarget=0;points=[[0,0.5],[1,0.5]];portConstraint=eastwest;top=0;left=0;right=0;bottom=0;fontFamily=Courier New;fontSize=14;strokeColor=#878787;fontColor=#878787;" vertex="1" parent="HIobyfhxAD7jdavmol56-105">
          <mxGeometry y="60" width="160" height="30" as="geometry" />
        </mxCell>
        <mxCell id="HIobyfhxAD7jdavmol56-110" value="" style="shape=partialRectangle;connectable=0;fillColor=none;top=0;left=0;bottom=0;right=0;editable=1;overflow=hidden;whiteSpace=wrap;html=1;fontFamily=Courier New;fontSize=14;strokeColor=#878787;fontColor=#878787;" vertex="1" parent="HIobyfhxAD7jdavmol56-109">
          <mxGeometry width="30" height="30" as="geometry">
            <mxRectangle width="30" height="30" as="alternateBounds" />
          </mxGeometry>
        </mxCell>
        <mxCell id="HIobyfhxAD7jdavmol56-111" value="surname" style="shape=partialRectangle;connectable=0;fillColor=none;top=0;left=0;bottom=0;right=0;align=left;spacingLeft=6;overflow=hidden;whiteSpace=wrap;html=1;fontFamily=Courier New;fontSize=14;strokeColor=#878787;fontColor=#878787;" vertex="1" parent="HIobyfhxAD7jdavmol56-109">
          <mxGeometry x="30" width="130" height="30" as="geometry">
            <mxRectangle width="130" height="30" as="alternateBounds" />
          </mxGeometry>
        </mxCell>
        <mxCell id="HIobyfhxAD7jdavmol56-112" value="" style="shape=tableRow;horizontal=0;startSize=0;swimlaneHead=0;swimlaneBody=0;fillColor=none;collapsible=0;dropTarget=0;points=[[0,0.5],[1,0.5]];portConstraint=eastwest;top=0;left=0;right=0;bottom=0;fontFamily=Courier New;fontSize=14;strokeColor=#878787;fontColor=#878787;" vertex="1" parent="HIobyfhxAD7jdavmol56-105">
          <mxGeometry y="90" width="160" height="30" as="geometry" />
        </mxCell>
        <mxCell id="HIobyfhxAD7jdavmol56-113" value="" style="shape=partialRectangle;connectable=0;fillColor=none;top=0;left=0;bottom=0;right=0;editable=1;overflow=hidden;whiteSpace=wrap;html=1;fontFamily=Courier New;fontSize=14;strokeColor=#878787;fontColor=#878787;" vertex="1" parent="HIobyfhxAD7jdavmol56-112">
          <mxGeometry width="30" height="30" as="geometry">
            <mxRectangle width="30" height="30" as="alternateBounds" />
          </mxGeometry>
        </mxCell>
        <mxCell id="HIobyfhxAD7jdavmol56-114" value="name" style="shape=partialRectangle;connectable=0;fillColor=none;top=0;left=0;bottom=0;right=0;align=left;spacingLeft=6;overflow=hidden;whiteSpace=wrap;html=1;fontFamily=Courier New;fontSize=14;strokeColor=#878787;fontColor=#878787;" vertex="1" parent="HIobyfhxAD7jdavmol56-112">
          <mxGeometry x="30" width="130" height="30" as="geometry">
            <mxRectangle width="130" height="30" as="alternateBounds" />
          </mxGeometry>
        </mxCell>
        <mxCell id="HIobyfhxAD7jdavmol56-115" value="" style="shape=tableRow;horizontal=0;startSize=0;swimlaneHead=0;swimlaneBody=0;fillColor=none;collapsible=0;dropTarget=0;points=[[0,0.5],[1,0.5]];portConstraint=eastwest;top=0;left=0;right=0;bottom=0;fontFamily=Courier New;fontSize=14;strokeColor=#878787;fontColor=#878787;" vertex="1" parent="HIobyfhxAD7jdavmol56-105">
          <mxGeometry y="120" width="160" height="30" as="geometry" />
        </mxCell>
        <mxCell id="HIobyfhxAD7jdavmol56-116" value="" style="shape=partialRectangle;connectable=0;fillColor=none;top=0;left=0;bottom=0;right=0;editable=1;overflow=hidden;whiteSpace=wrap;html=1;fontFamily=Courier New;fontSize=14;strokeColor=#878787;fontColor=#878787;" vertex="1" parent="HIobyfhxAD7jdavmol56-115">
          <mxGeometry width="30" height="30" as="geometry">
            <mxRectangle width="30" height="30" as="alternateBounds" />
          </mxGeometry>
        </mxCell>
        <mxCell id="HIobyfhxAD7jdavmol56-117" value="patronymic" style="shape=partialRectangle;connectable=0;fillColor=none;top=0;left=0;bottom=0;right=0;align=left;spacingLeft=6;overflow=hidden;whiteSpace=wrap;html=1;fontFamily=Courier New;fontSize=14;strokeColor=#878787;fontColor=#878787;" vertex="1" parent="HIobyfhxAD7jdavmol56-115">
          <mxGeometry x="30" width="130" height="30" as="geometry">
            <mxRectangle width="130" height="30" as="alternateBounds" />
          </mxGeometry>
        </mxCell>
        <mxCell id="HIobyfhxAD7jdavmol56-118" value="" style="shape=tableRow;horizontal=0;startSize=0;swimlaneHead=0;swimlaneBody=0;fillColor=none;collapsible=0;dropTarget=0;points=[[0,0.5],[1,0.5]];portConstraint=eastwest;top=0;left=0;right=0;bottom=0;fontFamily=Courier New;fontSize=14;strokeColor=#878787;fontColor=#878787;" vertex="1" parent="HIobyfhxAD7jdavmol56-105">
          <mxGeometry y="150" width="160" height="30" as="geometry" />
        </mxCell>
        <mxCell id="HIobyfhxAD7jdavmol56-119" value="" style="shape=partialRectangle;connectable=0;fillColor=none;top=0;left=0;bottom=0;right=0;editable=1;overflow=hidden;whiteSpace=wrap;html=1;fontFamily=Courier New;fontSize=14;strokeColor=#878787;fontColor=#878787;" vertex="1" parent="HIobyfhxAD7jdavmol56-118">
          <mxGeometry width="30" height="30" as="geometry">
            <mxRectangle width="30" height="30" as="alternateBounds" />
          </mxGeometry>
        </mxCell>
        <mxCell id="HIobyfhxAD7jdavmol56-120" value="birthdate" style="shape=partialRectangle;connectable=0;fillColor=none;top=0;left=0;bottom=0;right=0;align=left;spacingLeft=6;overflow=hidden;whiteSpace=wrap;html=1;fontFamily=Courier New;fontSize=14;strokeColor=#878787;fontColor=#878787;" vertex="1" parent="HIobyfhxAD7jdavmol56-118">
          <mxGeometry x="30" width="130" height="30" as="geometry">
            <mxRectangle width="130" height="30" as="alternateBounds" />
          </mxGeometry>
        </mxCell>
        <mxCell id="HIobyfhxAD7jdavmol56-121" value="" style="shape=tableRow;horizontal=0;startSize=0;swimlaneHead=0;swimlaneBody=0;fillColor=none;collapsible=0;dropTarget=0;points=[[0,0.5],[1,0.5]];portConstraint=eastwest;top=0;left=0;right=0;bottom=0;fontFamily=Courier New;fontSize=14;strokeColor=#878787;fontColor=#878787;" vertex="1" parent="HIobyfhxAD7jdavmol56-105">
          <mxGeometry y="180" width="160" height="30" as="geometry" />
        </mxCell>
        <mxCell id="HIobyfhxAD7jdavmol56-122" value="FK" style="shape=partialRectangle;connectable=0;fillColor=none;top=0;left=0;bottom=0;right=0;editable=1;overflow=hidden;whiteSpace=wrap;html=1;fontFamily=Courier New;fontSize=14;strokeColor=#878787;fontColor=#878787;" vertex="1" parent="HIobyfhxAD7jdavmol56-121">
          <mxGeometry width="30" height="30" as="geometry">
            <mxRectangle width="30" height="30" as="alternateBounds" />
          </mxGeometry>
        </mxCell>
        <mxCell id="HIobyfhxAD7jdavmol56-123" value="group_id" style="shape=partialRectangle;connectable=0;fillColor=none;top=0;left=0;bottom=0;right=0;align=left;spacingLeft=6;overflow=hidden;whiteSpace=wrap;html=1;fontFamily=Courier New;fontSize=14;strokeColor=#878787;fontColor=#878787;" vertex="1" parent="HIobyfhxAD7jdavmol56-121">
          <mxGeometry x="30" width="130" height="30" as="geometry">
            <mxRectangle width="130" height="30" as="alternateBounds" />
          </mxGeometry>
        </mxCell>
        <mxCell id="HIobyfhxAD7jdavmol56-124" value="" style="shape=tableRow;horizontal=0;startSize=0;swimlaneHead=0;swimlaneBody=0;fillColor=none;collapsible=0;dropTarget=0;points=[[0,0.5],[1,0.5]];portConstraint=eastwest;top=0;left=0;right=0;bottom=0;fontFamily=Courier New;fontSize=14;strokeColor=#878787;fontColor=#878787;" vertex="1" parent="HIobyfhxAD7jdavmol56-105">
          <mxGeometry y="210" width="160" height="30" as="geometry" />
        </mxCell>
        <mxCell id="HIobyfhxAD7jdavmol56-125" value="FK" style="shape=partialRectangle;connectable=0;fillColor=none;top=0;left=0;bottom=0;right=0;editable=1;overflow=hidden;whiteSpace=wrap;html=1;fontFamily=Courier New;fontSize=14;strokeColor=#878787;fontColor=#878787;" vertex="1" parent="HIobyfhxAD7jdavmol56-124">
          <mxGeometry width="30" height="30" as="geometry">
            <mxRectangle width="30" height="30" as="alternateBounds" />
          </mxGeometry>
        </mxCell>
        <mxCell id="HIobyfhxAD7jdavmol56-126" value="form_id" style="shape=partialRectangle;connectable=0;fillColor=none;top=0;left=0;bottom=0;right=0;align=left;spacingLeft=6;overflow=hidden;whiteSpace=wrap;html=1;fontFamily=Courier New;fontSize=14;strokeColor=#878787;fontColor=#878787;" vertex="1" parent="HIobyfhxAD7jdavmol56-124">
          <mxGeometry x="30" width="130" height="30" as="geometry">
            <mxRectangle width="130" height="30" as="alternateBounds" />
          </mxGeometry>
        </mxCell>
        <mxCell id="HIobyfhxAD7jdavmol56-127" value="" style="shape=tableRow;horizontal=0;startSize=0;swimlaneHead=0;swimlaneBody=0;fillColor=none;collapsible=0;dropTarget=0;points=[[0,0.5],[1,0.5]];portConstraint=eastwest;top=0;left=0;right=0;bottom=0;fontFamily=Courier New;fontSize=14;strokeColor=#878787;fontColor=#878787;" vertex="1" parent="HIobyfhxAD7jdavmol56-105">
          <mxGeometry y="240" width="160" height="30" as="geometry" />
        </mxCell>
        <mxCell id="HIobyfhxAD7jdavmol56-128" value="FK" style="shape=partialRectangle;connectable=0;fillColor=none;top=0;left=0;bottom=0;right=0;editable=1;overflow=hidden;whiteSpace=wrap;html=1;fontFamily=Courier New;fontSize=14;strokeColor=#878787;fontColor=#878787;" vertex="1" parent="HIobyfhxAD7jdavmol56-127">
          <mxGeometry width="30" height="30" as="geometry">
            <mxRectangle width="30" height="30" as="alternateBounds" />
          </mxGeometry>
        </mxCell>
        <mxCell id="HIobyfhxAD7jdavmol56-129" value="order_id" style="shape=partialRectangle;connectable=0;fillColor=none;top=0;left=0;bottom=0;right=0;align=left;spacingLeft=6;overflow=hidden;whiteSpace=wrap;html=1;fontFamily=Courier New;fontSize=14;strokeColor=#878787;fontColor=#878787;" vertex="1" parent="HIobyfhxAD7jdavmol56-127">
          <mxGeometry x="30" width="130" height="30" as="geometry">
            <mxRectangle width="130" height="30" as="alternateBounds" />
          </mxGeometry>
        </mxCell>
        <mxCell id="HIobyfhxAD7jdavmol56-153" value="" style="shape=tableRow;horizontal=0;startSize=0;swimlaneHead=0;swimlaneBody=0;fillColor=none;collapsible=0;dropTarget=0;points=[[0,0.5],[1,0.5]];portConstraint=eastwest;top=0;left=0;right=0;bottom=0;fontFamily=Courier New;fontSize=14;strokeColor=#878787;fontColor=#878787;" vertex="1" parent="HIobyfhxAD7jdavmol56-105">
          <mxGeometry y="270" width="160" height="30" as="geometry" />
        </mxCell>
        <mxCell id="HIobyfhxAD7jdavmol56-154" value="" style="shape=partialRectangle;connectable=0;fillColor=none;top=0;left=0;bottom=0;right=0;editable=1;overflow=hidden;whiteSpace=wrap;html=1;fontFamily=Courier New;fontSize=14;strokeColor=#878787;fontColor=#878787;" vertex="1" parent="HIobyfhxAD7jdavmol56-153">
          <mxGeometry width="30" height="30" as="geometry">
            <mxRectangle width="30" height="30" as="alternateBounds" />
          </mxGeometry>
        </mxCell>
        <mxCell id="HIobyfhxAD7jdavmol56-155" value="email" style="shape=partialRectangle;connectable=0;fillColor=none;top=0;left=0;bottom=0;right=0;align=left;spacingLeft=6;overflow=hidden;whiteSpace=wrap;html=1;fontFamily=Courier New;fontSize=14;strokeColor=#878787;fontColor=#878787;" vertex="1" parent="HIobyfhxAD7jdavmol56-153">
          <mxGeometry x="30" width="130" height="30" as="geometry">
            <mxRectangle width="130" height="30" as="alternateBounds" />
          </mxGeometry>
        </mxCell>
        <mxCell id="HIobyfhxAD7jdavmol56-131" value="Форма обучения" style="swimlane;childLayout=stackLayout;horizontal=1;startSize=30;horizontalStack=0;rounded=1;fontSize=14;fontStyle=0;strokeWidth=1;resizeParent=0;resizeLast=1;shadow=0;dashed=0;align=center;arcSize=4;whiteSpace=wrap;html=1;fontFamily=Courier New;labelBorderColor=none;textOpacity=50;" vertex="1" parent="1">
          <mxGeometry x="520" y="325" width="213" height="60" as="geometry">
            <mxRectangle x="370" y="60" width="80" height="50" as="alternateBounds" />
          </mxGeometry>
        </mxCell>
        <mxCell id="HIobyfhxAD7jdavmol56-132" value="Наименование" style="align=left;strokeColor=none;fillColor=none;spacingLeft=4;fontSize=14;verticalAlign=top;resizable=0;rotatable=0;part=1;html=1;fontFamily=Courier New;" vertex="1" parent="HIobyfhxAD7jdavmol56-131">
          <mxGeometry y="30" width="213" height="30" as="geometry" />
        </mxCell>
        <mxCell id="HIobyfhxAD7jdavmol56-133" value="orders" style="shape=table;startSize=30;container=1;collapsible=1;childLayout=tableLayout;fixedRows=1;rowLines=0;fontStyle=1;align=center;resizeLast=1;html=1;fontFamily=Courier New;fontSize=14;strokeColor=#878787;fontColor=#878787;" vertex="1" parent="1">
          <mxGeometry x="1779" y="482" width="160" height="120" as="geometry" />
        </mxCell>
        <mxCell id="HIobyfhxAD7jdavmol56-134" value="" style="shape=tableRow;horizontal=0;startSize=0;swimlaneHead=0;swimlaneBody=0;fillColor=none;collapsible=0;dropTarget=0;points=[[0,0.5],[1,0.5]];portConstraint=eastwest;top=0;left=0;right=0;bottom=1;fontFamily=Courier New;fontSize=14;strokeColor=#878787;fontColor=#878787;" vertex="1" parent="HIobyfhxAD7jdavmol56-133">
          <mxGeometry y="30" width="160" height="30" as="geometry" />
        </mxCell>
        <mxCell id="HIobyfhxAD7jdavmol56-135" value="PK" style="shape=partialRectangle;connectable=0;fillColor=none;top=0;left=0;bottom=0;right=0;fontStyle=1;overflow=hidden;whiteSpace=wrap;html=1;fontFamily=Courier New;fontSize=14;strokeColor=#878787;fontColor=#878787;" vertex="1" parent="HIobyfhxAD7jdavmol56-134">
          <mxGeometry width="30" height="30" as="geometry">
            <mxRectangle width="30" height="30" as="alternateBounds" />
          </mxGeometry>
        </mxCell>
        <mxCell id="HIobyfhxAD7jdavmol56-136" value="id" style="shape=partialRectangle;connectable=0;fillColor=none;top=0;left=0;bottom=0;right=0;align=left;spacingLeft=6;fontStyle=5;overflow=hidden;whiteSpace=wrap;html=1;fontFamily=Courier New;fontSize=14;strokeColor=#878787;fontColor=#878787;" vertex="1" parent="HIobyfhxAD7jdavmol56-134">
          <mxGeometry x="30" width="130" height="30" as="geometry">
            <mxRectangle width="130" height="30" as="alternateBounds" />
          </mxGeometry>
        </mxCell>
        <mxCell id="HIobyfhxAD7jdavmol56-137" value="" style="shape=tableRow;horizontal=0;startSize=0;swimlaneHead=0;swimlaneBody=0;fillColor=none;collapsible=0;dropTarget=0;points=[[0,0.5],[1,0.5]];portConstraint=eastwest;top=0;left=0;right=0;bottom=0;fontFamily=Courier New;fontSize=14;strokeColor=#878787;fontColor=#878787;" vertex="1" parent="HIobyfhxAD7jdavmol56-133">
          <mxGeometry y="60" width="160" height="30" as="geometry" />
        </mxCell>
        <mxCell id="HIobyfhxAD7jdavmol56-138" value="" style="shape=partialRectangle;connectable=0;fillColor=none;top=0;left=0;bottom=0;right=0;editable=1;overflow=hidden;whiteSpace=wrap;html=1;fontFamily=Courier New;fontSize=14;strokeColor=#878787;fontColor=#878787;" vertex="1" parent="HIobyfhxAD7jdavmol56-137">
          <mxGeometry width="30" height="30" as="geometry">
            <mxRectangle width="30" height="30" as="alternateBounds" />
          </mxGeometry>
        </mxCell>
        <mxCell id="HIobyfhxAD7jdavmol56-139" value="number" style="shape=partialRectangle;connectable=0;fillColor=none;top=0;left=0;bottom=0;right=0;align=left;spacingLeft=6;overflow=hidden;whiteSpace=wrap;html=1;fontFamily=Courier New;fontSize=14;strokeColor=#878787;fontColor=#878787;" vertex="1" parent="HIobyfhxAD7jdavmol56-137">
          <mxGeometry x="30" width="130" height="30" as="geometry">
            <mxRectangle width="130" height="30" as="alternateBounds" />
          </mxGeometry>
        </mxCell>
        <mxCell id="HIobyfhxAD7jdavmol56-140" value="" style="shape=tableRow;horizontal=0;startSize=0;swimlaneHead=0;swimlaneBody=0;fillColor=none;collapsible=0;dropTarget=0;points=[[0,0.5],[1,0.5]];portConstraint=eastwest;top=0;left=0;right=0;bottom=0;fontFamily=Courier New;fontSize=14;strokeColor=#878787;fontColor=#878787;" vertex="1" parent="HIobyfhxAD7jdavmol56-133">
          <mxGeometry y="90" width="160" height="30" as="geometry" />
        </mxCell>
        <mxCell id="HIobyfhxAD7jdavmol56-141" value="" style="shape=partialRectangle;connectable=0;fillColor=none;top=0;left=0;bottom=0;right=0;editable=1;overflow=hidden;whiteSpace=wrap;html=1;fontFamily=Courier New;fontSize=14;strokeColor=#878787;fontColor=#878787;" vertex="1" parent="HIobyfhxAD7jdavmol56-140">
          <mxGeometry width="30" height="30" as="geometry">
            <mxRectangle width="30" height="30" as="alternateBounds" />
          </mxGeometry>
        </mxCell>
        <mxCell id="HIobyfhxAD7jdavmol56-142" value="date" style="shape=partialRectangle;connectable=0;fillColor=none;top=0;left=0;bottom=0;right=0;align=left;spacingLeft=6;overflow=hidden;whiteSpace=wrap;html=1;fontFamily=Courier New;fontSize=14;strokeColor=#878787;fontColor=#878787;" vertex="1" parent="HIobyfhxAD7jdavmol56-140">
          <mxGeometry x="30" width="130" height="30" as="geometry">
            <mxRectangle width="130" height="30" as="alternateBounds" />
          </mxGeometry>
        </mxCell>
        <mxCell id="HIobyfhxAD7jdavmol56-143" value="forms" style="shape=table;startSize=30;container=1;collapsible=1;childLayout=tableLayout;fixedRows=1;rowLines=0;fontStyle=1;align=center;resizeLast=1;html=1;fontFamily=Courier New;fontSize=14;strokeColor=#878787;fontColor=#878787;" vertex="1" parent="1">
          <mxGeometry x="1779" y="362" width="160" height="90" as="geometry" />
        </mxCell>
        <mxCell id="HIobyfhxAD7jdavmol56-144" value="" style="shape=tableRow;horizontal=0;startSize=0;swimlaneHead=0;swimlaneBody=0;fillColor=none;collapsible=0;dropTarget=0;points=[[0,0.5],[1,0.5]];portConstraint=eastwest;top=0;left=0;right=0;bottom=1;fontFamily=Courier New;fontSize=14;strokeColor=#878787;fontColor=#878787;" vertex="1" parent="HIobyfhxAD7jdavmol56-143">
          <mxGeometry y="30" width="160" height="30" as="geometry" />
        </mxCell>
        <mxCell id="HIobyfhxAD7jdavmol56-145" value="PK" style="shape=partialRectangle;connectable=0;fillColor=none;top=0;left=0;bottom=0;right=0;fontStyle=1;overflow=hidden;whiteSpace=wrap;html=1;fontFamily=Courier New;fontSize=14;strokeColor=#878787;fontColor=#878787;" vertex="1" parent="HIobyfhxAD7jdavmol56-144">
          <mxGeometry width="30" height="30" as="geometry">
            <mxRectangle width="30" height="30" as="alternateBounds" />
          </mxGeometry>
        </mxCell>
        <mxCell id="HIobyfhxAD7jdavmol56-146" value="id" style="shape=partialRectangle;connectable=0;fillColor=none;top=0;left=0;bottom=0;right=0;align=left;spacingLeft=6;fontStyle=5;overflow=hidden;whiteSpace=wrap;html=1;fontFamily=Courier New;fontSize=14;strokeColor=#878787;fontColor=#878787;" vertex="1" parent="HIobyfhxAD7jdavmol56-144">
          <mxGeometry x="30" width="130" height="30" as="geometry">
            <mxRectangle width="130" height="30" as="alternateBounds" />
          </mxGeometry>
        </mxCell>
        <mxCell id="HIobyfhxAD7jdavmol56-147" value="" style="shape=tableRow;horizontal=0;startSize=0;swimlaneHead=0;swimlaneBody=0;fillColor=none;collapsible=0;dropTarget=0;points=[[0,0.5],[1,0.5]];portConstraint=eastwest;top=0;left=0;right=0;bottom=0;fontFamily=Courier New;fontSize=14;strokeColor=#878787;fontColor=#878787;" vertex="1" parent="HIobyfhxAD7jdavmol56-143">
          <mxGeometry y="60" width="160" height="30" as="geometry" />
        </mxCell>
        <mxCell id="HIobyfhxAD7jdavmol56-148" value="" style="shape=partialRectangle;connectable=0;fillColor=none;top=0;left=0;bottom=0;right=0;editable=1;overflow=hidden;whiteSpace=wrap;html=1;fontFamily=Courier New;fontSize=14;strokeColor=#878787;fontColor=#878787;" vertex="1" parent="HIobyfhxAD7jdavmol56-147">
          <mxGeometry width="30" height="30" as="geometry">
            <mxRectangle width="30" height="30" as="alternateBounds" />
          </mxGeometry>
        </mxCell>
        <mxCell id="HIobyfhxAD7jdavmol56-149" value="title" style="shape=partialRectangle;connectable=0;fillColor=none;top=0;left=0;bottom=0;right=0;align=left;spacingLeft=6;overflow=hidden;whiteSpace=wrap;html=1;fontFamily=Courier New;fontSize=14;strokeColor=#878787;fontColor=#878787;" vertex="1" parent="HIobyfhxAD7jdavmol56-147">
          <mxGeometry x="30" width="130" height="30" as="geometry">
            <mxRectangle width="130" height="30" as="alternateBounds" />
          </mxGeometry>
        </mxCell>
        <mxCell id="HIobyfhxAD7jdavmol56-157" style="edgeStyle=orthogonalEdgeStyle;rounded=0;orthogonalLoop=1;jettySize=auto;html=1;exitX=0;exitY=0.5;exitDx=0;exitDy=0;entryX=1;entryY=0.5;entryDx=0;entryDy=0;endArrow=oval;endFill=1;startArrow=ERmany;startFill=0;" edge="1" parent="1" source="HIobyfhxAD7jdavmol56-9" target="HIobyfhxAD7jdavmol56-51">
          <mxGeometry relative="1" as="geometry" />
        </mxCell>
        <mxCell id="HIobyfhxAD7jdavmol56-160" style="edgeStyle=orthogonalEdgeStyle;rounded=0;orthogonalLoop=1;jettySize=auto;html=1;exitX=1;exitY=0.5;exitDx=0;exitDy=0;entryX=0;entryY=0.5;entryDx=0;entryDy=0;endArrow=oval;endFill=1;startArrow=ERmany;startFill=0;" edge="1" parent="1" source="HIobyfhxAD7jdavmol56-6" target="HIobyfhxAD7jdavmol56-106">
          <mxGeometry relative="1" as="geometry" />
        </mxCell>
        <mxCell id="HIobyfhxAD7jdavmol56-161" style="edgeStyle=orthogonalEdgeStyle;rounded=0;orthogonalLoop=1;jettySize=auto;html=1;exitX=1;exitY=0.5;exitDx=0;exitDy=0;entryX=0;entryY=0.5;entryDx=0;entryDy=0;endArrow=oval;endFill=1;startArrow=ERmany;startFill=0;strokeColor=#878787;fontColor=#878787;" edge="1" parent="1" source="HIobyfhxAD7jdavmol56-121" target="HIobyfhxAD7jdavmol56-74">
          <mxGeometry relative="1" as="geometry" />
        </mxCell>
        <mxCell id="HIobyfhxAD7jdavmol56-162" style="edgeStyle=orthogonalEdgeStyle;rounded=0;orthogonalLoop=1;jettySize=auto;html=1;exitX=1;exitY=0.5;exitDx=0;exitDy=0;entryX=0;entryY=0.5;entryDx=0;entryDy=0;endArrow=oval;endFill=1;startArrow=ERmany;startFill=0;strokeColor=#878787;fontColor=#878787;" edge="1" parent="1" source="HIobyfhxAD7jdavmol56-124" target="HIobyfhxAD7jdavmol56-144">
          <mxGeometry relative="1" as="geometry">
            <Array as="points">
              <mxPoint x="1749" y="317" />
              <mxPoint x="1749" y="407" />
            </Array>
          </mxGeometry>
        </mxCell>
        <mxCell id="HIobyfhxAD7jdavmol56-163" style="edgeStyle=orthogonalEdgeStyle;rounded=0;orthogonalLoop=1;jettySize=auto;html=1;exitX=1;exitY=0.5;exitDx=0;exitDy=0;entryX=0;entryY=0.5;entryDx=0;entryDy=0;endArrow=oval;endFill=1;startArrow=ERmany;startFill=0;strokeColor=#878787;fontColor=#878787;" edge="1" parent="1" source="HIobyfhxAD7jdavmol56-127" target="HIobyfhxAD7jdavmol56-134">
          <mxGeometry relative="1" as="geometry">
            <Array as="points">
              <mxPoint x="1729" y="347" />
              <mxPoint x="1729" y="527" />
            </Array>
          </mxGeometry>
        </mxCell>
        <mxCell id="HIobyfhxAD7jdavmol56-164" style="edgeStyle=orthogonalEdgeStyle;rounded=0;orthogonalLoop=1;jettySize=auto;html=1;exitX=1;exitY=0.5;exitDx=0;exitDy=0;entryX=0;entryY=0.5;entryDx=0;entryDy=0;startArrow=ERmany;startFill=0;endArrow=oval;endFill=1;strokeColor=#878787;fontColor=#878787;" edge="1" parent="1" source="HIobyfhxAD7jdavmol56-83" target="HIobyfhxAD7jdavmol56-96">
          <mxGeometry relative="1" as="geometry" />
        </mxCell>
      </root>
    </mxGraphModel>
  </diagram>
</mxfile>
